<svg width="560" height="414" viewBox="0 0 560 414" fill="none" xmlns="http://www.w3.org/2000/svg">
<path d="M281.992 0L465.795 365.25H98.189L281.993 0H281.992Z" fill="#FFDC85"/>
<path d="M88.963 0L272.766 365.25H39.609L88.963 0ZM474.646 0L290.844 365.25H524L474.646 0Z" fill="#FFDC85"/>
<path d="M553.323 159.404V217.747L220.722 409.554L6 284.918V229.234" stroke="black" stroke-width="6" stroke-miterlimit="10"/>
<path d="M297.943 59.792H382.92M50.89 201.687V229.234V201.687ZM102.086 169.655V251.016V169.655ZM153.281 145.311V279.204V145.311ZM204.469 118.404V308.673V118.404ZM255.664 87.013V295.22V87.013ZM306.859 61.387V263.83V61.387ZM358.049 48.574V238.203V48.574ZM409.242 79.965V206.171V79.965ZM460.439 105.591V185.03V105.591ZM511.627 131.857V160.686V131.857ZM127.336 264.321H326.478H127.336ZM34.978 213.192H410.501H34.978ZM124.771 162.057H491.956H124.771ZM208.15 110.921H447.058H208.15Z" stroke="white" stroke-width="6" stroke-miterlimit="10"/>
<path d="M221 349V393.204" stroke="black" stroke-width="6" stroke-miterlimit="10"/>
<path d="M553.323 146.636L220.722 338.443L6 213.807L338.601 22L553.323 146.636ZM220.722 337.918L552.418 146.636L338.601 22.5253L6.90435 213.807L220.722 337.918Z" stroke="black" stroke-width="6" stroke-miterlimit="10"/>
</svg>